<?xml version="1.0" encoding="UTF-8" standalone="no"?>
<svg
   class="svg-icon"
   style="width: 1em; height: 1em;vertical-align: middle;fill: currentColor;overflow: hidden;"
   viewBox="0 0 1024 1024"
   version="1.1"
   id="svg1"
   sodipodi:docname="default.svg"
   inkscape:version="1.3.2 (091e20ef0f, 2023-11-25, custom)"
   xmlns:inkscape="http://www.inkscape.org/namespaces/inkscape"
   xmlns:sodipodi="http://sodipodi.sourceforge.net/DTD/sodipodi-0.dtd"
   xmlns="http://www.w3.org/2000/svg"
   xmlns:svg="http://www.w3.org/2000/svg">
  <defs
     id="defs1" />
  <sodipodi:namedview
     id="namedview1"
     pagecolor="#ffffff"
     bordercolor="#000000"
     borderopacity="0.25"
     inkscape:showpageshadow="2"
     inkscape:pageopacity="0.0"
     inkscape:pagecheckerboard="0"
     inkscape:deskcolor="#d1d1d1"
     inkscape:zoom="0.58398438"
     inkscape:cx="512"
     inkscape:cy="512"
     inkscape:window-width="1920"
     inkscape:window-height="1046"
     inkscape:window-x="0"
     inkscape:window-y="0"
     inkscape:window-maximized="0"
     inkscape:current-layer="svg1" />
  <g
     id="g1">
    <rect
       style="fill:#ffffff;fill-opacity:1;stroke-width:0.565197"
       id="rect1"
       width="470.34119"
       height="712.17395"
       x="276.82941"
       y="155.91302" />
    <path
       d="M512 1024C229.23 1024 0 794.77 0 512S229.23 0 512 0s512 229.23 512 512-229.23 512-512 512z m-7.5-176c25.666 0 46.5-20.834 46.5-46.5S530.166 755 504.5 755 458 775.834 458 801.5s20.834 46.5 46.5 46.5z m200.251-453.21c2.579-48.654-14.936-95.375-49.535-131.57-37.071-38.987-89.507-61.327-143.77-61.22-51.47 0.108-99.823 20.192-136.141 56.602C338.986 295.012 319 343.343 319 394.789c0 21.373 17.3 38.665 38.683 38.665 21.382 0 38.682-17.292 38.682-38.665 0-63.583 51.792-115.35 115.296-115.458h0.214c32.988 0 64.794 13.533 87.251 37.161 19.771 20.73 29.764 47.043 28.367 74.216-1.182 23.306-2.364 45.324-71.67 114.6-43.303 43.283-82.63 86.566-87.895 140.16-2.042 21.266 13.431 40.277 34.707 42.317 1.29 0.108 2.578 0.215 3.868 0.215 19.664 0 36.533-14.929 38.468-34.906 2.47-25.455 26.862-54.453 65.545-93.119 76.29-76.256 91.549-115.458 94.235-165.186z"
       id="path1"
       style="width:1em;height:1em;vertical-align:middle;fill:currentColor;overflow:hidden" />
  </g>
</svg>
