<?xml version="1.0" encoding="UTF-8" standalone="no"?>
<svg
   class="svg-icon"
   style="overflow:hidden;fill:currentColor"
   viewBox="0 0 1024 1024"
   version="1.1"
   id="svg1"
   width="1024"
   height="1024"
   xmlns="http://www.w3.org/2000/svg"
   xmlns:svg="http://www.w3.org/2000/svg"
   xmlns:rdf="http://www.w3.org/1999/02/22-rdf-syntax-ns#"
   xmlns:cc="http://creativecommons.org/ns#">
  <defs
     id="defs1" />
  <g
     id="g1">
    <rect
       style="fill:#ffffff;fill-opacity:1;stroke-width:0.565197"
       id="rect1"
       width="470.34119"
       height="712.17395"
       x="276.82941"
       y="155.91302" />
    <path
       d="M 512,1024 C 229.23,1024 0,794.77 0,512 0,229.23 229.23,0 512,0 c 282.77,0 512,229.23 512,512 0,282.77 -229.23,512 -512,512 z m -7.5,-176 c 25.666,0 46.5,-20.834 46.5,-46.5 0,-25.666 -20.834,-46.5 -46.5,-46.5 -25.666,0 -46.5,20.834 -46.5,46.5 0,25.666 20.834,46.5 46.5,46.5 z M 704.751,394.79 C 707.33,346.136 689.815,299.415 655.216,263.22 618.145,224.233 565.709,201.893 511.446,202 459.976,202.108 411.623,222.192 375.305,258.602 338.986,295.012 319,343.343 319,394.789 c 0,21.373 17.3,38.665 38.683,38.665 21.382,0 38.682,-17.292 38.682,-38.665 0,-63.583 51.792,-115.35 115.296,-115.458 h 0.214 c 32.988,0 64.794,13.533 87.251,37.161 19.771,20.73 29.764,47.043 28.367,74.216 -1.182,23.306 -2.364,45.324 -71.67,114.6 -43.303,43.283 -82.63,86.566 -87.895,140.16 -2.042,21.266 13.431,40.277 34.707,42.317 1.29,0.108 2.578,0.215 3.868,0.215 19.664,0 36.533,-14.929 38.468,-34.906 2.47,-25.455 26.862,-54.453 65.545,-93.119 76.29,-76.256 91.549,-115.458 94.235,-165.186 z"
       id="path1"
       style="overflow:hidden;fill:currentColor;stroke:#000000;stroke-width:1;stroke-dasharray:none;stroke-opacity:1" />
  </g>
  <metadata
     id="metadata1">
    <rdf:RDF>
      <cc:License
         rdf:about="http://artlibre.org/licence/lal">
        <cc:permits
           rdf:resource="http://creativecommons.org/ns#Reproduction" />
        <cc:permits
           rdf:resource="http://creativecommons.org/ns#Distribution" />
        <cc:permits
           rdf:resource="http://creativecommons.org/ns#DerivativeWorks" />
        <cc:requires
           rdf:resource="http://creativecommons.org/ns#ShareAlike" />
        <cc:requires
           rdf:resource="http://creativecommons.org/ns#Notice" />
        <cc:requires
           rdf:resource="http://creativecommons.org/ns#Attribution" />
      </cc:License>
      <cc:Work
         rdf:about="">
        <cc:license
           rdf:resource="http://artlibre.org/licence/lal" />
      </cc:Work>
    </rdf:RDF>
  </metadata>
</svg>
